<?xml version="1.0" standalone="no"?><!DOCTYPE svg PUBLIC "-//W3C//DTD SVG 1.1//EN" "http://www.w3.org/Graphics/SVG/1.1/DTD/svg11.dtd"><svg t="1490235469417" class="icon" style="" viewBox="0 0 1024 1024" version="1.1" xmlns="http://www.w3.org/2000/svg" p-id="2530" xmlns:xlink="http://www.w3.org/1999/xlink" width="30" height="30"><defs><style type="text/css"></style></defs><path d="M979.774943 516.757351c0.271188-9.781784-4.690009-20.431332-13.949272-29.474288L546.846062 77.860299c-19.271711-18.844184-50.552425-18.844184-69.823113 0L58.041294 487.284085c-10.503656 10.260691-15.994947 21.626553-14.21125 32.055067-0.120755 0.895393-0.203646 1.801019-0.203646 2.728134 0 11.489682 9.529427 20.806885 21.292826 20.806885l110.524778 0c-2.78965 6.102998-4.062696 13.175067-4.062696 20.722974l0 353.805048c0 22.981411 19.063971 41.611723 42.584628 41.611723l596.197075 0c23.520657 0 42.584628-18.630313 42.584628-41.611723L852.747637 563.597145c0.287561-8.266267-0.705088-15.118326-2.858214-20.722974L959.208695 542.874171c11.762375 0 21.292826-9.318226 21.292826-20.806885C980.501521 520.229428 980.233404 518.456039 979.774943 516.757351zM810.161985 875.785354c0 22.986527-19.063971 41.61684-42.584628 41.61684L256.550562 917.402193c-23.520657 0-42.584628-18.630313-42.584628-41.61684L213.965934 521.985422c-0.001023 0-0.00307 0-0.004093 0-0.046051-11.450796-9.553988-20.72502-21.287709-20.72502l-85.058735 0 369.407553-360.983541c19.271711-18.837021 50.552425-18.837021 69.823113 0.007163l369.406529 360.975355-84.796757 0c-11.734745 0-21.242682 9.274224-21.287709 20.72502-0.001023 0-0.00307 0-0.004093 0L810.164032 875.785354z" p-id="2531"></path></svg>